0
SECTION
2
HEADER
9
$INSUNITS
70
1
9
$ACADVER
1
AC1014
9
$HANDSEED
5
FFFF
0
ENDSEC
0
SECTION
2
TABLES
0
TABLE
2
VPORT
5
8
100
AcDbSymbolTable
0
ENDTAB
0
TABLE
2
LTYPE
5
5
100
AcDbSymbolTable
0
LTYPE
5
14
100
AcDbSymbolTableRecord
100
AcDbLinetypeTableRecord
2
BYBLOCK
70
0
0
LTYPE
5
15
100
AcDbSymbolTableRecord
100
AcDbLinetypeTableRecord
2
BYLAYER
70
0
0
ENDTAB
0
TABLE
2
LAYER
5
2
100
AcDbSymbolTable
70
2
0
LAYER
5
50
100
AcDbSymbolTableRecord
100
AcDbLayerTableRecord
2
0
70
0
6
CONTINUOUS
0
ENDTAB
0
TABLE
2
STYLE
5
3
100
AcDbSymbolTable
70
1
0
STYLE
5
11
100
AcDbSymbolTableRecord
100
AcDbTextStyleTableRecord
2
STANDARD
70
0
0
ENDTAB
0
TABLE
2
VIEW
5
6
100
AcDbSymbolTable
70
0
0
ENDTAB
0
TABLE
2
UCS
5
7
100
AcDbSymbolTable
70
0
0
ENDTAB
0
TABLE
2
APPID
5
9
100
AcDbSymbolTable
70
2
0
APPID
5
12
100
AcDbSymbolTableRecord
100
AcDbRegAppTableRecord
2
ACAD
70
0
0
ENDTAB
0
TABLE
2
DIMSTYLE
5
A
100
AcDbSymbolTable
70
1
0
ENDTAB
0
TABLE
2
BLOCK_RECORD
5
1
100
AcDbSymbolTable
70
1
0
BLOCK_RECORD
5
1F
100
AcDbSymbolTableRecord
100
AcDbBlockTableRecord
2
*MODEL_SPACE
0
BLOCK_RECORD
5
1B
100
AcDbSymbolTableRecord
100
AcDbBlockTableRecord
2
*PAPER_SPACE
0
ENDTAB
0
ENDSEC
0
SECTION
2
BLOCKS
0
BLOCK
5
20
100
AcDbEntity
100
AcDbBlockBegin
2
*MODEL_SPACE
0
ENDBLK
5
21
100
AcDbEntity
100
AcDbBlockEnd
0
BLOCK
5
1C
100
AcDbEntity
100
AcDbBlockBegin
2
*PAPER_SPACE
0
ENDBLK
5
1D
100
AcDbEntity
100
AcDbBlockEnd
0
ENDSEC
0
SECTION
2
ENTITIES
0
LWPOLYLINE
5
100
100
AcDbEntity
8
0
100
AcDbPolyline
90
4
70
1
43
0.0
10
1.6888936823004286
20
1.7117213170040779
10
1.6514921074972786
20
1.7117213170040779
10
1.6514921074972786
20
1.6743197422009282
10
1.6888936823004286
20
1.6743197422009282
0
LWPOLYLINE
5
101
100
AcDbEntity
8
0
100
AcDbPolyline
90
4
70
1
43
0.0
10
-1.520080122156297
20
-1.3121527909885944
10
-1.5574816969594467
20
-1.3121527909885944
10
-1.5574816969594467
20
-1.3495543657917439
10
-1.520080122156297
20
-1.3495543657917439
0
LWPOLYLINE
5
102
100
AcDbEntity
8
0
100
AcDbPolyline
90
4
70
1
43
0.0
10
-0.42008012215629703
20
-1.3121527909885944
10
-0.45748169695944674
20
-1.3121527909885944
10
-0.45748169695944674
20
-1.3495543657917439
10
-0.42008012215629703
20
-1.3495543657917439
0
LWPOLYLINE
5
103
100
AcDbEntity
8
0
100
AcDbPolyline
90
4
70
1
43
0.0
10
0.44768554686737605
20
-1.3117853100161707
10
0.41028397206422634
20
-1.3117853100161707
10
0.41028397206422634
20
-1.3491868848193203
10
0.44768554686737605
20
-1.3491868848193203
0
LWPOLYLINE
5
104
100
AcDbEntity
8
0
100
AcDbPolyline
90
4
70
1
43
0.0
10
1.547685546867376
20
-1.3117853100161707
10
1.5102839720642263
20
-1.3117853100161707
10
1.5102839720642263
20
-1.3491868848193203
10
1.547685546867376
20
-1.3491868848193203
0
LWPOLYLINE
5
105
100
AcDbEntity
8
0
100
AcDbPolyline
90
4
70
1
43
0.0
10
0.18950075164328506
20
2.0117982728651826
10
0.15209917684013538
20
2.0117982728651826
10
0.15209917684013538
20
1.9743966980620329
10
0.18950075164328506
20
1.9743966980620329
0
LWPOLYLINE
5
106
100
AcDbEntity
8
0
100
AcDbPolyline
90
4
70
1
43
0.0
10
1.9895007516432852
20
2.0117982728651826
10
1.9520991768401355
20
2.0117982728651826
10
1.9520991768401355
20
1.9743966980620329
10
1.9895007516432852
20
1.9743966980620329
0
LWPOLYLINE
5
107
100
AcDbEntity
8
0
100
AcDbPolyline
90
4
70
1
43
0.0
10
0.58889368230042838
20
1.7117213170040779
10
0.55149210749727873
20
1.7117213170040779
10
0.55149210749727873
20
1.6743197422009282
10
0.58889368230042838
20
1.6743197422009282
0
LWPOLYLINE
5
108
100
AcDbEntity
8
0
100
AcDbPolyline
90
4
70
1
43
0.0
10
0.19235650316142092
20
1.0125122107447175
10
0.15495492835827124
20
1.0125122107447175
10
0.15495492835827124
20
0.97511063594156788
10
0.19235650316142092
20
0.97511063594156788
0
LWPOLYLINE
5
109
100
AcDbEntity
8
0
100
AcDbPolyline
90
4
70
1
43
0.0
10
1.992356503161421
20
1.0125122107447173
10
1.954954928358271
20
1.0125122107447173
10
1.954954928358271
20
0.97511063594156766
10
1.992356503161421
20
0.97511063594156766
0
LWPOLYLINE
5
110
100
AcDbEntity
8
0
100
AcDbPolyline
90
4
70
1
43
0.0
10
0.19235650316142092
20
0.91251221074471756
10
0.15495492835827124
20
0.91251221074471756
10
0.15495492835827124
20
0.8751106359415679
10
0.19235650316142092
20
0.8751106359415679
0
LWPOLYLINE
5
111
100
AcDbEntity
8
0
100
AcDbPolyline
90
4
70
1
43
0.0
10
1.992356503161421
20
0.91251221074471733
10
1.954954928358271
20
0.91251221074471733
10
1.954954928358271
20
0.87511063594156768
10
1.992356503161421
20
0.87511063594156768
0
CIRCLE
5
112
100
AcDbEntity
8
0
100
AcDbCircle
10
-2.1632416626220095
20
1.5416116756260969
30
0
40
0.062992125984251676
210
-0
220
0
230
1
0
CIRCLE
5
113
100
AcDbEntity
8
0
100
AcDbCircle
10
-0.58138674210053798
20
2.9907808106750133
30
0
40
0.062992125984251579
210
-0
220
0
230
1
0
CIRCLE
5
114
100
AcDbEntity
8
0
100
AcDbCircle
10
2.1525763793036092
20
1.5416116756261278
30
0
40
0.062992125984251676
210
-0
220
0
230
1
0
CIRCLE
5
115
100
AcDbEntity
8
0
100
AcDbCircle
10
0.57072145878211222
20
2.9907808106750218
30
0
40
0.062992125984251579
210
-0
220
0
230
1
0
CIRCLE
5
116
100
AcDbEntity
8
0
100
AcDbCircle
10
1.5697293856040329
20
0.66551587745083474
30
0
40
0.045275499999999934
210
0
220
-0
230
1
0
CIRCLE
5
117
100
AcDbEntity
8
0
100
AcDbCircle
10
0.58392341247464752
20
-1.0539105820352634
30
0
40
0.045275499999999753
210
0
220
-0
230
1
0
CIRCLE
5
118
100
AcDbEntity
8
0
100
AcDbCircle
10
-0.4003285875253379
20
0.18624741796472791
30
0
40
0.045275499999999802
210
0
220
-0
230
1
0
CIRCLE
5
119
100
AcDbEntity
8
0
100
AcDbCircle
10
-0.990879587525345
20
-1.5361935820352466
30
0
40
0.045275499999999753
210
0
220
-0
230
1
0
CIRCLE
5
120
100
AcDbEntity
8
0
100
AcDbCircle
10
-0.79402958752533215
20
0.66853041796472423
30
0
40
0.045275499999999753
210
0
220
-0
230
1
0
CIRCLE
5
121
100
AcDbEntity
8
0
100
AcDbCircle
10
1.3713244124746395
20
-1.5361935820352615
30
0
40
0.045275499999999753
210
0
220
-0
230
1
0
CIRCLE
5
122
100
AcDbEntity
8
0
100
AcDbCircle
10
-1.7782815875253368
20
-1.0539105820352488
30
0
40
0.04527549999999958
210
0
220
-0
230
1
0
CIRCLE
5
123
100
AcDbEntity
8
0
100
AcDbCircle
10
-1.5814315875253271
20
0.66853041796472912
30
0
40
0.045275499999999753
210
0
220
-0
230
1
0
CIRCLE
5
124
100
AcDbEntity
8
0
100
AcDbCircle
10
0.78077341247465637
20
0.66853041796471446
30
0
40
0.045275499999999753
210
0
220
-0
230
1
0
CIRCLE
5
125
100
AcDbEntity
8
0
100
AcDbCircle
10
1.371324412474646
20
-0.57162658203527339
30
0
40
0.045275499999999753
210
0
220
-0
230
1
0
CIRCLE
5
126
100
AcDbEntity
8
0
100
AcDbCircle
10
1.4288054124746499
20
0.14766441796471733
30
0
40
0.019999999999999719
210
0
220
-0
230
1
0
CIRCLE
5
127
100
AcDbEntity
8
0
100
AcDbCircle
10
-1.4420615875253331
20
-0.15233558203526132
30
0
40
0.019999999999999893
210
0
220
-0
230
1
0
CIRCLE
5
128
100
AcDbEntity
8
0
100
AcDbCircle
10
-1.4420615875253306
20
0.24766441796473426
30
0
40
0.019999999999999893
210
0
220
-0
230
1
0
CIRCLE
5
129
100
AcDbEntity
8
0
100
AcDbCircle
10
-1.4420615875253313
20
0.14766441796473551
30
0
40
0.019999999999999893
210
0
220
-0
230
1
0
CIRCLE
5
130
100
AcDbEntity
8
0
100
AcDbCircle
10
1.4288054124746477
20
-0.15233558203527933
30
0
40
0.019999999999999719
210
0
220
-0
230
1
0
CIRCLE
5
131
100
AcDbEntity
8
0
100
AcDbCircle
10
1.4288054124746499
20
0.24766441796471608
30
0
40
0.019999999999999719
210
0
220
-0
230
1
0
CIRCLE
5
132
100
AcDbEntity
8
0
100
AcDbCircle
10
1.428805412474649
20
0.047664417964718549
30
0
40
0.019999999999999719
210
0
220
-0
230
1
0
CIRCLE
5
133
100
AcDbEntity
8
0
100
AcDbCircle
10
-1.4420615875253324
20
-0.052335582035262042
30
0
40
0.019999999999999893
210
0
220
-0
230
1
0
CIRCLE
5
134
100
AcDbEntity
8
0
100
AcDbCircle
10
-1.44206158752533
20
0.34766441796473302
30
0
40
0.019999999999999893
210
0
220
-0
230
1
0
CIRCLE
5
135
100
AcDbEntity
8
0
100
AcDbCircle
10
-1.442061587525332
20
0.047664417964736729
30
0
40
0.019999999999999893
210
0
220
-0
230
1
0
CIRCLE
5
136
100
AcDbEntity
8
0
100
AcDbCircle
10
1.4288054124746483
20
-0.052335582035280222
30
0
40
0.019999999999999719
210
0
220
-0
230
1
0
CIRCLE
5
137
100
AcDbEntity
8
0
100
AcDbCircle
10
1.4288054124746505
20
0.34766441796471487
30
0
40
0.019999999999999719
210
0
220
-0
230
1
0
LWPOLYLINE
5
138
100
AcDbEntity
8
0
100
AcDbPolyline
90
4
70
1
43
0.0
10
-2.0978485875253372
20
-1.4193435820352414
10
-2.0978485875253359
20
-1.2593435820352432
42
0.99999999999999989
10
-2.1378485875253359
20
-1.2593435820352428
10
-2.1378485875253368
20
-1.4193435820352411
42
0.99999999999999989
0
LWPOLYLINE
5
139
100
AcDbEntity
8
0
100
AcDbPolyline
90
4
70
1
43
0.0
10
-1.0889905875253356
20
-0.17918658203526339
10
-1.0889905875253345
20
-0.019186582035265107
42
0.99999999999999989
10
-1.1289905875253343
20
-0.019186582035264861
10
-1.1289905875253354
20
-0.17918658203526314
42
0.99999999999999989
0
LWPOLYLINE
5
140
100
AcDbEntity
8
0
100
AcDbPolyline
90
4
70
1
43
0.0
10
-2.0978485875253332
20
-0.84847758203524881
10
-2.0978485875253323
20
-0.68847758203525056
42
0.99999999999999989
10
-2.1378485875253319
20
-0.68847758203525045
10
-2.1378485875253328
20
-0.84847758203524837
42
0.99999999999999989
0
LWPOLYLINE
5
141
100
AcDbEntity
8
0
100
AcDbPolyline
90
4
70
1
43
0.0
10
-1.0889905875253321
20
0.39168041796472985
10
-1.088990587525331
20
0.55168041796472767
42
0.99999999999999989
10
-1.1289905875253308
20
0.55168041796472789
10
-1.1289905875253317
20
0.39168041796473013
42
0.99999999999999989
0
LWPOLYLINE
5
142
100
AcDbEntity
8
0
100
AcDbPolyline
90
12
70
1
43
0.0
10
1.7249999999999994
20
0.79000000000000004
10
1.7249999999999994
20
-0.42499999999999993
10
2.1879999999999997
20
-0.42499999999999977
10
2.1879999999999997
20
-1.6789999999999998
10
-2.1879999999999997
20
-1.6789999999999998
10
-2.1879999999999997
20
-0.42499999999999977
10
-1.7249999999999994
20
-0.42499999999999993
10
-1.7249999999999994
20
0.79000000000000004
10
-2.4629999999999996
20
0.79000000000000004
10
-2.4630000000000001
20
2.1699999999999977
42
-0.447646778113032
10
2.4629999999999996
20
2.1700000000000004
10
2.4629999999999996
20
0.79000000000000004
0
ENDSEC
0
SECTION
2
OBJECTS
0
DICTIONARY
5
C
100
AcDbDictionary
3
ACAD_GROUP
350
D
3
ACAD_MLINESTYLE
350
17
0
DICTIONARY
5
D
100
AcDbDictionary
0
DICTIONARY
5
1A
330
C
100
AcDbDictionary
0
DICTIONARY
5
17
100
AcDbDictionary
0
ENDSEC
0
EOF
